<?xml version="1.0" standalone="no"?>
<!DOCTYPE svg PUBLIC "-//W3C//DTD SVG 20010904//EN"
 "http://www.w3.org/TR/2001/REC-SVG-20010904/DTD/svg10.dtd">
<svg version="1.0" xmlns="http://www.w3.org/2000/svg"
 width="559.000000pt" height="557.000000pt" viewBox="0 0 559.000000 557.000000"
 preserveAspectRatio="xMidYMid meet">

<g transform="translate(0.000000,557.000000) scale(0.100000,-0.100000)"
fill="#000000" stroke="none">
<path d="M1310 4086 c-129 -36 -247 -151 -292 -286 -21 -62 -22 -88 -27 -510
-7 -487 -5 -472 -68 -532 -34 -33 -82 -53 -147 -63 -69 -10 -106 -47 -106
-108 0 -67 25 -92 112 -112 82 -18 102 -28 141 -64 63 -58 61 -44 68 -531 5
-411 7 -449 25 -501 61 -169 178 -274 335 -301 86 -14 143 1 169 45 24 38 25
68 5 106 -16 31 -43 45 -127 61 -70 14 -130 56 -160 112 -23 42 -23 49 -29
493 -4 322 -9 461 -18 490 -19 58 -54 115 -100 159 l-40 39 48 53 c57 62 87
119 101 193 6 31 10 229 10 465 0 410 0 411 24 461 13 28 37 63 55 78 33 27
115 57 159 57 37 0 92 60 92 102 0 90 -99 130 -230 94z"/>
<path d="M3984 4086 c-41 -18 -64 -52 -64 -96 0 -65 28 -86 143 -110 69 -14
132 -58 161 -115 20 -38 21 -59 27 -490 5 -393 7 -456 22 -495 26 -65 60 -120
101 -159 l35 -34 -48 -53 c-59 -64 -87 -122 -101 -206 -5 -35 -10 -238 -10
-464 l0 -402 -28 -53 c-37 -71 -87 -105 -182 -124 -89 -18 -120 -45 -120 -103
0 -77 58 -118 155 -109 164 16 301 122 367 287 22 53 23 71 28 505 l5 450 28
48 c35 58 85 93 157 107 30 6 68 16 83 22 38 15 61 61 54 110 -9 64 -33 82
-136 99 -68 11 -124 49 -159 108 l-27 46 -5 450 c-5 439 -6 451 -28 507 -28
69 -97 166 -144 201 -98 73 -238 106 -314 73z"/>
<path d="M2360 3893 c-13 -3 -42 -17 -65 -32 -22 -16 -94 -49 -161 -75 -129
-50 -154 -52 -203 -14 -13 10 -34 18 -46 18 -28 0 -114 -67 -120 -94 -3 -12
-6 -81 -8 -155 l-2 -134 -65 -50 c-54 -41 -72 -63 -107 -131 -24 -44 -43 -86
-43 -92 0 -6 14 -28 30 -49 39 -49 39 -83 0 -120 l-30 -29 0 -154 0 -153 58
-62 c77 -83 82 -86 122 -87 31 0 37 -5 52 -40 14 -34 22 -41 62 -51 42 -10 49
-17 81 -75 31 -56 48 -72 125 -124 51 -34 92 -69 96 -82 4 -13 6 -77 5 -144
-2 -127 7 -169 39 -191 19 -14 19 -15 -7 -54 -40 -61 -39 -118 5 -206 30 -61
43 -76 82 -96 25 -14 57 -27 73 -31 15 -4 49 -29 75 -56 l48 -50 592 0 c691 0
632 -10 632 110 0 58 -5 81 -30 129 -26 52 -29 69 -28 138 0 63 -3 85 -20 113
l-21 36 49 87 50 87 0 102 0 102 34 36 c50 51 76 128 76 225 l0 80 80 147 c76
140 80 150 80 210 0 37 -5 69 -12 76 -7 7 -30 12 -52 12 -36 0 -47 -7 -97 -56
l-57 -56 -30 22 c-27 20 -32 33 -52 139 -30 151 -32 157 -79 180 -22 12 -42
29 -45 39 -13 40 -54 61 -211 107 -88 25 -164 50 -170 55 -24 20 -258 100
-340 116 -94 18 -93 18 -153 104 -28 42 -45 56 -68 60 -17 3 -45 17 -63 32
l-32 28 22 29 c28 37 19 64 -33 102 -39 28 -62 32 -118 22z m-16 -150 c-46
-69 -42 -112 18 -156 l27 -20 35 21 c36 22 36 22 69 2 17 -11 39 -20 48 -20 9
0 36 -29 59 -65 25 -38 51 -67 64 -70 11 -3 62 -14 112 -25 94 -20 251 -73
320 -108 21 -10 71 -28 109 -40 39 -11 103 -30 142 -42 61 -17 76 -26 88 -51
9 -16 31 -37 50 -46 37 -17 36 -15 71 -193 10 -47 24 -93 33 -103 14 -17 13
-21 -15 -45 -47 -40 -164 -216 -164 -246 0 -36 39 -60 78 -49 34 9 127 93 137
123 3 10 23 29 43 42 20 12 56 40 79 61 l43 39 -55 -100 c-55 -99 -55 -100
-55 -188 0 -97 -21 -163 -58 -183 -34 -18 -52 -83 -52 -184 l0 -92 -55 -95
c-30 -52 -55 -102 -55 -110 0 -8 14 -35 30 -60 27 -41 30 -53 30 -128 0 -68 4
-91 25 -132 14 -27 25 -58 25 -70 0 -20 -4 -20 -533 -20 l-533 0 -44 45 c-24
25 -57 47 -74 51 -66 13 -93 34 -115 84 -12 27 -21 53 -21 58 0 5 13 29 30 53
38 57 40 103 4 140 -25 26 -26 32 -30 168 -4 185 -8 191 -151 291 -54 38 -80
64 -102 103 -46 82 -59 96 -97 103 -31 6 -39 13 -55 49 -21 47 -33 55 -87 55
-28 0 -44 8 -74 37 l-38 37 0 114 c0 113 0 115 30 149 26 29 30 42 30 91 0 44
-6 66 -24 92 l-24 35 23 45 c15 30 43 59 83 88 100 73 102 78 102 243 l0 141
23 -6 c124 -33 126 -33 279 28 79 31 154 65 168 76 14 11 26 20 27 20 1 0 -9
-17 -23 -37z"/>
</g>
</svg>
